<svg width="16" height="17" viewBox="0 0 16 17" fill="none" xmlns="http://www.w3.org/2000/svg">
<path d="M3.13302 5.75718C3.04195 5.75718 2.96812 5.83101 2.96812 5.92208V14.4965C2.96812 14.5876 3.04195 14.6614 3.13302 14.6614H12.3671C12.4581 14.6614 12.532 14.5876 12.532 14.4965V5.92208C12.532 5.83101 12.4581 5.75718 12.3671 5.75718H3.13302ZM1.97876 5.92208C1.97876 5.2846 2.49554 4.76782 3.13302 4.76782H12.3671C13.0045 4.76782 13.5213 5.2846 13.5213 5.92208V14.4965C13.5213 15.134 13.0045 15.6508 12.3671 15.6508H3.13302C2.49554 15.6508 1.97876 15.134 1.97876 14.4965V5.92208Z" fill="#262626"/>
<path d="M7.74997 2.45933C6.74821 2.45933 5.93614 3.27141 5.93614 4.27316V6.58167C5.93614 6.85488 5.71466 7.07635 5.44146 7.07635C5.16826 7.07635 4.94678 6.85488 4.94678 6.58167V4.27316C4.94678 2.725 6.20181 1.46997 7.74997 1.46997C9.29812 1.46997 10.5532 2.725 10.5532 4.27316V6.58167C10.5532 6.85488 10.3317 7.07635 10.0585 7.07635C9.78528 7.07635 9.5638 6.85488 9.5638 6.58167V4.27316C9.5638 3.27141 8.75173 2.45933 7.74997 2.45933Z" fill="#262626"/>
</svg>
