<svg width="150" height="150" viewBox="0 0 150 150" fill="none" xmlns="http://www.w3.org/2000/svg">
<rect width="150" height="150" rx="75" fill="#FEE3C7"/>
<path d="M75 75.4458L105.588 75.5985C107.237 75.3811 108.915 75.2695 110.569 75.2695C116.379 75.2695 122.405 76.6534 127.533 79.1644L130 80.3721L129.199 82.9972C124.304 99.0517 109.169 109.967 92.5702 109.967C86.4278 109.967 80.5255 108.506 75 105.619C69.4745 108.506 63.5722 109.967 57.4298 109.967C40.8348 109.967 25.6992 99.0618 20.8015 82.9972L20 80.3721L22.4665 79.1644C27.5951 76.6534 33.6208 75.2695 39.4308 75.2695C41.0849 75.2695 42.7625 75.3811 44.4125 75.5985L75 75.4458Z" fill="#FF7B42"/>
<path d="M130 80.3721L129.199 82.9972C124.304 99.0517 109.169 109.967 92.5702 109.967C86.4278 109.967 80.5255 108.506 75 105.619V75.4458L105.588 75.5985C107.237 75.3811 108.915 75.2695 110.569 75.2695C116.379 75.2695 122.405 76.6534 127.533 79.1644L130 80.3721Z" fill="#FC7B42"/>
<path d="M108.796 78.6409C106.263 85.0619 102.078 90.6848 96.6962 94.9002C91.5618 98.9243 85.8961 101.511 78.3833 102.763H78.3808L74.9995 101.073L71.6157 102.763C64.7256 101.676 58.579 99.0402 53.3028 94.9044C47.9208 90.6873 43.7355 85.0644 41.2027 78.6409C36.9528 67.8727 37.7283 55.8775 43.3335 45.7329L44.6209 43.4023L47.1512 44.2273C53.3372 46.2381 58.9441 49.8132 63.3744 54.5096V54.5113C64.6895 55.8994 65.8963 57.3865 66.9856 58.9584H83.0133C84.1387 57.3303 85.3682 55.8331 86.6245 54.5113C86.6229 54.5096 86.6271 54.5071 86.6271 54.5071C91.1019 49.7889 96.5057 46.3195 102.848 44.2273L105.378 43.4023L106.665 45.7329C112.271 55.8775 113.046 67.8727 108.796 78.6409Z" fill="#F05415"/>
<path d="M108.797 78.6409C106.264 85.0619 102.079 90.6848 96.6967 94.9002C91.5623 98.9243 85.8966 101.511 78.3838 102.763H78.3813L75 101.073V58.9584H83.0138C84.1393 57.3303 85.3687 55.8331 86.6251 54.5113C86.6234 54.5096 86.6276 54.5071 86.6276 54.5071C91.1024 49.7889 96.5062 46.3195 102.848 44.2273L105.379 43.4023L106.666 45.7329C112.271 55.8775 113.047 67.8727 108.797 78.6409Z" fill="#EF5214"/>
<path d="M87.3661 56.1752C87.1278 55.6129 86.881 55.0565 86.6251 54.5101V54.5084C84.146 49.2313 80.8587 44.8186 77.0519 41.6732L75 39.9805L72.9481 41.6732C69.1413 44.8186 65.854 49.2313 63.3749 54.5084V54.5101C63.119 55.0565 62.8722 55.6129 62.6339 56.1752C60.2186 61.8878 58.8867 68.2492 58.8867 74.0827C58.8867 85.0716 63.5033 95.4253 71.6162 102.762C73.3694 103.04 74.7852 103.146 75 103.168H75.0025C75.1083 103.157 76.6625 103.031 78.3838 102.762C86.4967 95.4253 91.1133 85.0716 91.1133 74.0827C91.1133 68.2492 89.7814 61.8878 87.3661 56.1752Z" fill="#FF7B43"/>
<path d="M91.1133 74.0827C91.1133 85.0716 86.4967 95.4253 78.3838 102.762C76.5685 103.046 75.2216 103.145 75.0025 103.168H75V39.9805L77.0519 41.6732C80.8587 44.8186 84.146 49.2313 86.6251 54.5084V54.5101C86.881 55.0565 87.1278 55.6129 87.3661 56.1752C89.7814 61.8878 91.1133 68.2492 91.1133 74.0827Z" fill="#FD672A"/>
</svg>
