<svg width="20" height="21" viewBox="0 0 20 21" fill="none" xmlns="http://www.w3.org/2000/svg">
<path d="M15.21 18.7119H10.8213V17.8623C10.8213 17.6513 10.8217 17.4392 10.8223 17.2275V16.5244C10.8223 16.2829 10.8218 16.0412 10.8213 15.7988V15.7979C10.8213 15.7856 10.8209 15.773 10.8203 15.7607C10.8194 15.7422 10.817 15.7255 10.8145 15.7109L10.8135 15.7021L10.8125 15.6943C10.8125 15.6943 10.8117 15.691 10.8096 15.6816L10.8066 15.6709C10.8052 15.6643 10.8035 15.6581 10.8018 15.6523V15.6504C10.7993 15.6425 10.7972 15.638 10.7959 15.6338C10.7947 15.63 10.7949 15.6279 10.7949 15.6279L10.7939 15.627C10.7338 15.4549 10.5352 15.2566 10.1426 15.2139V15.2129C10.1284 15.2116 10.1146 15.2112 10.1006 15.21C10.089 15.209 10.0744 15.2086 10.0557 15.208H10.0469L10.0371 15.207C10.033 15.2068 10.0249 15.207 9.99512 15.207C9.97949 15.207 9.96828 15.2076 9.95996 15.208H9.93652L9.85449 15.2148L9.85352 15.2139C9.44924 15.2602 9.25369 15.4706 9.20117 15.6494L9.19922 15.6562C9.199 15.657 9.19881 15.6587 9.19824 15.6611L9.19727 15.6631C9.19705 15.664 9.19717 15.6661 9.19629 15.6699C9.19559 15.673 9.19368 15.6781 9.19238 15.6836C9.18957 15.6965 9.18757 15.7109 9.18555 15.7275L9.18164 15.7979V15.7988C9.18112 16.0412 9.18066 16.2829 9.18066 16.5244V18.7119H4.79297V16.958L4.84082 16.8662V16.8633C4.84103 16.8584 4.84153 16.8517 4.8418 16.8457C4.84236 16.8333 4.84262 16.817 4.84375 16.7998L4.85449 16.3076L4.85547 16.2891V16.2754L4.85645 16.2666C4.85982 16.1442 4.8659 16.007 4.88379 15.8652C4.89923 15.7435 4.92432 15.6149 4.96387 15.4834C5.26729 14.4664 5.66035 13.479 6.12988 12.5195C6.64362 11.3955 7.25451 10.2916 8.03027 9.23535C7.92263 9.19036 7.81305 9.1389 7.70898 9.07715C7.48964 8.94683 7.20426 8.6855 7.20312 8.27246C7.20222 7.8649 7.47976 7.60203 7.69141 7.46875H7.69238C7.72265 7.44973 7.75543 7.43146 7.78906 7.41309C7.80105 7.31333 7.83748 7.19881 7.9209 7.08789L8.01758 6.97949C8.11775 6.88183 8.22421 6.81748 8.2959 6.77832C8.30921 6.77105 8.32331 6.76481 8.33691 6.75781C8.3377 6.75461 8.33803 6.75127 8.33887 6.74805C8.36817 6.63529 8.42159 6.54855 8.47266 6.48535C8.39624 6.23011 8.38471 5.95215 8.50391 5.6709C8.64684 5.33383 8.92621 5.11947 9.23438 4.97852V2.66406C9.23416 2.66129 9.23377 2.65787 9.2334 2.65332V2.64551L9.23242 2.6377C9.23146 2.6211 9.21393 2.44975 9.28223 2.27148V2.27051C9.31532 2.18437 9.35974 2.11923 9.39355 2.07617C9.42732 2.03322 9.46093 2.00011 9.48145 1.98047C9.50013 1.96259 9.52212 1.94329 9.52637 1.93945L9.91895 1.5293L10 1.59473L10.084 1.52832L10.4785 1.94141L10.5215 1.98047C10.542 2.00011 10.5746 2.03323 10.6084 2.07617C10.6422 2.11923 10.6866 2.18417 10.7197 2.27051L10.7217 2.27441C10.7401 2.32341 10.7511 2.3717 10.7588 2.41602C10.8535 2.44867 10.9632 2.47868 11.084 2.50195C11.4271 2.56785 11.7951 2.52613 12.2412 2.4375L12.5283 2.38867C13.2048 2.29674 13.9289 2.36285 14.5742 2.84277L14.5732 2.84375C14.6252 2.88215 14.665 2.91928 14.6836 2.9375C14.7067 2.96014 14.7209 2.97454 14.748 3L14.1143 4.0459C13.7656 3.92426 13.4727 3.96521 13.1367 4.1084H13.1357C12.9406 4.19151 12.7529 4.28868 12.5781 4.39453C12.1288 4.66712 11.6107 4.95695 10.9775 5.08887C11.199 5.22596 11.3885 5.4129 11.498 5.67188C11.6169 5.95312 11.6049 6.23027 11.5283 6.48535C11.5796 6.54861 11.6346 6.63486 11.6641 6.74805C11.665 6.7515 11.6642 6.75535 11.665 6.75879C11.6785 6.76573 11.6928 6.7711 11.7061 6.77832C11.7779 6.81758 11.8846 6.88154 11.9844 6.97852L12.0801 7.08691L12.0811 7.08789C12.1642 7.19841 12.1988 7.31256 12.2109 7.41211C12.2454 7.43095 12.2795 7.44915 12.3105 7.46875L12.3926 7.52441C12.5874 7.66944 12.7993 7.91586 12.7988 8.27246C12.7981 8.68584 12.5125 8.94679 12.293 9.07715V9.07812C12.1883 9.14005 12.0778 9.19024 11.9697 9.23535C12.7428 10.2882 13.3533 11.3872 13.8662 12.5068L14.0391 12.8691C14.4354 13.7186 14.7722 14.5894 15.0391 15.4834L15.04 15.4854C15.0784 15.6152 15.1027 15.7431 15.1182 15.8652L15.1387 16.0928L15.1475 16.3057V16.3076C15.151 16.5067 15.1485 16.6466 15.1582 16.7998L15.1602 16.8447C15.1604 16.8502 15.1609 16.857 15.1611 16.8613C15.1612 16.8627 15.1611 16.864 15.1611 16.8652L15.21 16.959V18.7119Z" stroke="#D72600" stroke-width="1.25"/>
</svg>
