<svg width="100" height="14" viewBox="0 0 100 14" fill="none" xmlns="http://www.w3.org/2000/svg">
<path d="M0.471 1.49042H3.752L6.71 10.2624L9.668 1.49042H12.813L8.257 13.5604H5.027L0.471 1.49042ZM17.0735 13.8154C14.3195 13.8154 12.4155 11.7924 12.4155 9.00442C12.4155 6.42042 14.2855 4.24442 16.9885 4.24442C19.8275 4.24442 21.5105 6.31842 21.5105 9.14042V9.75242H15.2545C15.4585 10.7384 16.0365 11.4864 17.1075 11.4864C17.8555 11.4864 18.3485 11.1974 18.8075 10.6024L21.3405 11.2654C20.6265 12.9484 18.8415 13.8154 17.0735 13.8154ZM16.9885 6.31842C15.9685 6.31842 15.4415 7.04942 15.2545 7.98442H18.6545C18.5015 7.04942 18.0085 6.31842 16.9885 6.31842ZM26.7055 13.8154C24.2065 13.8154 22.6255 11.4354 22.6255 9.08942C22.6255 6.62442 24.2235 4.24442 26.8925 4.24442C27.8785 4.24442 28.8305 4.61842 29.4255 5.43442V0.844424H32.1965V13.5604H29.6465L29.5615 12.2684C28.9325 13.2374 27.8615 13.8154 26.7055 13.8154ZM25.4475 9.02142C25.4475 9.46342 25.5325 9.85442 25.7195 10.1944C26.0425 10.8744 26.7055 11.3164 27.4535 11.3164C28.7115 11.3164 29.4595 10.2114 29.4595 9.02142C29.4595 7.84842 28.7285 6.74342 27.4535 6.74342C26.2125 6.74342 25.4475 7.83142 25.4475 9.02142ZM33.5133 10.9934C33.5133 8.95342 35.4343 8.06942 37.2533 8.06942C37.9503 8.06942 38.4943 8.17142 39.1403 8.42642V7.96742C39.1403 7.08342 38.6303 6.50542 37.7293 6.50542C37.1343 6.50542 36.5563 6.77742 36.3183 7.35542L33.8363 6.93042C34.2103 5.17942 36.0973 4.24442 37.7803 4.24442C40.0583 4.24442 41.8263 5.68942 41.8263 8.10342V13.5604H39.3443L39.2763 12.4894C38.7663 13.4074 37.6783 13.8154 36.6753 13.8154C35.0263 13.8154 33.5133 12.7784 33.5133 10.9934ZM36.2333 10.8234C36.2333 11.4694 36.8793 11.7584 37.4403 11.7584C38.3583 11.7584 39.1403 11.1634 39.1403 10.1944V10.1094C38.6473 9.90542 38.3073 9.82042 37.7633 9.82042C37.1343 9.82042 36.2333 10.0244 36.2333 10.8234ZM43.7202 1.49042H46.6102L50.0612 7.93342L53.5292 1.49042H56.3512V13.5604H53.5122V6.48842L51.0642 11.0444H49.0072L46.5592 6.48842V13.5604H43.7202V1.49042ZM57.818 10.9934C57.818 8.95342 59.739 8.06942 61.558 8.06942C62.255 8.06942 62.799 8.17142 63.445 8.42642V7.96742C63.445 7.08342 62.935 6.50542 62.034 6.50542C61.439 6.50542 60.861 6.77742 60.623 7.35542L58.141 6.93042C58.515 5.17942 60.402 4.24442 62.085 4.24442C64.363 4.24442 66.131 5.68942 66.131 8.10342V13.5604H63.649L63.581 12.4894C63.071 13.4074 61.983 13.8154 60.98 13.8154C59.331 13.8154 57.818 12.7784 57.818 10.9934ZM60.538 10.8234C60.538 11.4694 61.184 11.7584 61.745 11.7584C62.663 11.7584 63.445 11.1634 63.445 10.1944V10.1094C62.952 9.90542 62.612 9.82042 62.068 9.82042C61.439 9.82042 60.538 10.0244 60.538 10.8234ZM67.8719 4.49942H70.4219L70.5069 5.68942C71.0509 4.73742 72.0539 4.24442 73.1419 4.24442C75.3349 4.24442 76.3549 6.04642 76.3549 8.08642V13.5604H73.5839V8.47742C73.5839 7.95042 73.4649 7.52542 73.2269 7.20242C72.9719 6.89642 72.6319 6.74342 72.2069 6.74342C71.2719 6.74342 70.6429 7.50842 70.6429 8.42642V13.5604H67.8719V4.49942ZM81.8558 13.8154C79.3568 13.8154 77.7758 11.4354 77.7758 9.08942C77.7758 6.62442 79.3738 4.24442 82.0428 4.24442C83.0288 4.24442 83.9808 4.61842 84.5758 5.43442V0.844424H87.3468V13.5604H84.7968L84.7118 12.2684C84.0828 13.2374 83.0118 13.8154 81.8558 13.8154ZM80.5978 9.02142C80.5978 9.46342 80.6828 9.85442 80.8698 10.1944C81.1928 10.8744 81.8558 11.3164 82.6038 11.3164C83.8618 11.3164 84.6098 10.2114 84.6098 9.02142C84.6098 7.84842 83.8788 6.74342 82.6038 6.74342C81.3628 6.74342 80.5978 7.83142 80.5978 9.02142ZM89.0887 13.5604V4.49942H91.8597V13.5604H89.0887ZM89.1397 2.88442C89.0037 2.66342 88.9357 2.40842 88.9357 2.11942C88.9357 1.83042 89.0037 1.57542 89.1397 1.35442C89.3947 0.878424 89.9387 0.606424 90.4657 0.606424C91.0267 0.606424 91.5367 0.878424 91.8257 1.35442C91.9447 1.57542 92.0127 1.83042 92.0127 2.11942C92.0127 2.40842 91.9447 2.66342 91.8257 2.88442C91.5367 3.36042 91.0267 3.63242 90.4657 3.63242C89.9387 3.63242 89.3947 3.36042 89.1397 2.88442ZM93.5877 4.49942H96.1377L96.2397 5.94442C96.6647 4.99242 97.4127 4.38042 98.4837 4.38042C98.7727 4.38042 99.0447 4.41442 99.3167 4.53342L99.0447 7.28742C98.7897 7.16842 98.5347 7.16842 98.2627 7.16842C96.9027 7.16842 96.3587 7.96742 96.3587 9.25942V13.5604H93.5877V4.49942Z" fill="#F80000"/>
</svg>
