<svg width="150" height="150" viewBox="0 0 150 150" fill="none" xmlns="http://www.w3.org/2000/svg">
<rect width="150" height="150" rx="75" fill="#FEE3C7"/>
<path d="M116.939 43.1856V71.1237C116.939 96.567 99.6604 118.753 74.98 125C50.3408 118.773 33.0625 96.567 33.0625 71.1237V43.1856C52.4646 41 63.4543 33.6186 75.0006 25C86.547 33.6186 97.5367 41 116.939 43.1856Z" fill="#ED5613"/>
<path d="M75.0007 113.97C56.4463 108.073 43.6992 90.836 43.6992 71.1247V52.1968C56.7346 49.3515 66.3104 44.0938 75.0007 38.0938C83.8763 44.2587 93.2667 49.4133 106.302 52.2175V71.1453C106.302 90.836 93.555 108.073 75.0007 113.97Z" fill="#F86323"/>
<path d="M68.0593 92.0939L57.7422 81.764L62.9728 76.5063L68.0593 81.5784L87.0255 62.6094L92.2561 67.8465L68.0593 92.0939Z" fill="white"/>
</svg>
